<svg width="200" height="50" viewBox="0 0 200 50" fill="none" xmlns="http://www.w3.org/2000/svg">
  <path d="M20 10L30 40H25L15 10H20Z" fill="#FCE100"/>
  <path d="M35 10H40L50 40H45L35 10Z" fill="#FCE100"/>
  <path d="M55 10H60V40H55V10Z" fill="#012B3F"/>
  <path d="M65 10H85V15H70V22.5H80V27.5H70V35H85V40H65V10Z" fill="#012B3F"/>
  <path d="M90 10H110V15H95V22.5H105V27.5H95V35H110V40H90V10Z" fill="#012B3F"/>
  <path d="M115 10H120L130 25L140 10H145V40H140V20L130 35L120 20V40H115V10Z" fill="#012B3F"/>
  <path d="M150 10H170C175 10 180 15 180 20C180 25 175 30 170 30H155V40H150V10ZM155 25H170C172.5 25 175 22.5 175 20C175 17.5 172.5 15 170 15H155V25Z" fill="#012B3F"/>
  <path d="M185 10H190V35H200V40H185V10Z" fill="#012B3F"/>
</svg> 